HIERARCHY
ROOT hips
{
  OFFSET 0 10.6860622 2.3727825e-15
  CHANNELS 6 Xposition Yposition Zposition Yrotation Xrotation Zrotation
  JOINT leftUpperLeg
  {
    OFFSET 0.6642549969 -0.9402397400000004 0
    CHANNELS 3 Yrotation Xrotation Zrotation
    JOINT leftLowerLeg
    {
      OFFSET 0 -3.997221335632195 0
      CHANNELS 3 Yrotation Xrotation Zrotation
      JOINT leftFoot
      {
        OFFSET -0.13777839790000004 -4.6145792000000005 -0.22186036399999998
        CHANNELS 3 Yrotation Xrotation Zrotation
        JOINT leftToes
        {
          OFFSET -0.03777410834999995 -0.9130806927000008 0.85230013
          CHANNELS 3 Yrotation Xrotation Zrotation
          End Site
          {
            OFFSET -0.03777410834999995 -0.9130806927000008 0.85230013
          }
        }
      }
    }
  }
  JOINT rightUpperLeg
  {
    OFFSET -0.6642778626 -0.9402397400000004 0
    CHANNELS 3 Yrotation Xrotation Zrotation
    JOINT rightLowerLeg
    {
      OFFSET 0 -3.997221452859387 0
      CHANNELS 3 Yrotation Xrotation Zrotation
      JOINT rightFoot
      {
        OFFSET 0.1377926176 -4.6145792000000005 -0.22185782299999995
        CHANNELS 3 Yrotation Xrotation Zrotation
        JOINT rightToes
        {
          OFFSET 0.037780746850000047 -0.9130806927000008 0.85230167
          CHANNELS 3 Yrotation Xrotation Zrotation
          End Site
          {
            OFFSET 0.037780746850000047 -0.9130806927000008 0.85230167
          }
        }
      }
    }
  }
  JOINT spine
  {
    OFFSET 0 0.13988381660000015 0
    CHANNELS 3 Yrotation Xrotation Zrotation
    JOINT chest
    {
      OFFSET 0 0.6191039003973773 0
      CHANNELS 3 Yrotation Xrotation Zrotation
      JOINT upperChest
      {
        OFFSET 0 0.9855186130586943 0
        CHANNELS 3 Yrotation Xrotation Zrotation
        JOINT leftShoulder
        {
          OFFSET 0.1807663869 1.5087829790000005 0
          CHANNELS 3 Yrotation Xrotation Zrotation
          JOINT leftUpperArm
          {
            OFFSET 0.5985063006419806 0 0
            CHANNELS 3 Yrotation Xrotation Zrotation
            JOINT leftLowerArm
            {
              OFFSET 2.2993332369501065 0 0
              CHANNELS 3 Yrotation Xrotation Zrotation
              JOINT leftHand
              {
                OFFSET 2.395047042602395 0 0
                CHANNELS 3 Yrotation Xrotation Zrotation
                JOINT leftIndexProximal
                {
                  OFFSET 0.5766295810000004 0.04556643899499946 0.17265095988184
                  CHANNELS 3 Yrotation Xrotation Zrotation
                  JOINT leftIndexIntermediate
                  {
                    OFFSET 0.2957229000000008 -0.019352197700001517 -0.007932640616999987
                    CHANNELS 3 Yrotation Xrotation Zrotation
                    JOINT leftIndexDistal
                    {
                      OFFSET 0.19008243099999922 -0.012484908149998475 -0.002786250786000012
                      CHANNELS 3 Yrotation Xrotation Zrotation
                      End Site
                      {
                        OFFSET 0.19008243099999922 -0.012484908149998475 -0.002786250786000012
                      }
                    }
                  }
                }
                JOINT leftMiddleProximal
                {
                  OFFSET 0.5834975091000001 0.0524350405149987 0.02204081888183999
                  CHANNELS 3 Yrotation Xrotation Zrotation
                  JOINT leftMiddleIntermediate
                  {
                    OFFSET 0.33880573540000003 -0.019871473270000717 -0.00000971183179999946
                    CHANNELS 3 Yrotation Xrotation Zrotation
                    JOINT leftMiddleDistal
                    {
                      OFFSET 0.20676022730000088 -0.012221336379999448 0.0001471936708000235
                      CHANNELS 3 Yrotation Xrotation Zrotation
                      End Site
                      {
                        OFFSET 0.20676022730000088 -0.012221336379999448 0.0001471936708000235
                      }
                    }
                  }
                }
                JOINT leftLittleProximal
                {
                  OFFSET 0.5344154683999995 -0.012880921405001189 -0.24414037221816004
                  CHANNELS 3 Yrotation Xrotation Zrotation
                  JOINT leftLittleIntermediate
                  {
                    OFFSET 0.21758961730000093 -0.011650919939999227 0.011893592810000034
                    CHANNELS 3 Yrotation Xrotation Zrotation
                    JOINT leftLittleDistal
                    {
                      OFFSET 0.1475273964999999 -0.008152365682999818 0.006001092492999946
                      CHANNELS 3 Yrotation Xrotation Zrotation
                      End Site
                      {
                        OFFSET 0.1475273964999999 -0.008152365682999818 0.006001092492999946
                      }
                    }
                  }
                }
                JOINT leftRingProximal
                {
                  OFFSET 0.5799399463000003 0.026911854694997794 -0.12150566991816003
                  CHANNELS 3 Yrotation Xrotation Zrotation
                  JOINT leftRingIntermediate
                  {
                    OFFSET 0.26167887460000006 -0.013480186499999602 0.010996293000000053
                    CHANNELS 3 Yrotation Xrotation Zrotation
                    JOINT leftRingDistal
                    {
                      OFFSET 0.17667108799999987 -0.008990287899999228 0.0055541023999999065
                      CHANNELS 3 Yrotation Xrotation Zrotation
                      End Site
                      {
                        OFFSET 0.17667108799999987 -0.008990287899999228 0.0055541023999999065
                      }
                    }
                  }
                }
                JOINT leftThumbProximal
                {
                  OFFSET 0.11018806699999972 -0.09448718900500053 0.17047963138184
                  CHANNELS 3 Yrotation Xrotation Zrotation
                  JOINT leftThumbIntermediate
                  {
                    OFFSET 0.31062601459999983 -0.08126270900000132 0.15443142000000007
                    CHANNELS 3 Yrotation Xrotation Zrotation
                    JOINT leftThumbDistal
                    {
                      OFFSET 0.21627175790000086 -0.08833193599999878 0.018771167799999988
                      CHANNELS 3 Yrotation Xrotation Zrotation
                      End Site
                      {
                        OFFSET 0.21627175790000086 -0.08833193599999878 0.018771167799999988
                      }
                    }
                  }
                }
              }
            }
          }
        }
        JOINT neck
        {
          OFFSET 0 1.5463305265074576 0
          CHANNELS 3 Yrotation Xrotation Zrotation
          JOINT head
          {
            OFFSET 0 0.8456443600000344 0
            CHANNELS 3 Yrotation Xrotation Zrotation
            JOINT leftEye
            {
              OFFSET 0.30408573140000006 0.5104519199999995 0.1276382305
              CHANNELS 3 Yrotation Xrotation Zrotation
              End Site
              {
                OFFSET 0.30408573140000006 0.5104519199999995 0.1276382305
              }
            }
            JOINT rightEye
            {
              OFFSET -0.30409491089999996 0.5104519199999995 0.1276379445
              CHANNELS 3 Yrotation Xrotation Zrotation
              End Site
              {
                OFFSET -0.30409491089999996 0.5104519199999995 0.1276379445
              }
            }
            JOINT jaw
            {
              OFFSET -3.155239131000001e-7 -0.11984121820000082 0.60178107
              CHANNELS 3 Yrotation Xrotation Zrotation
              End Site
              {
                OFFSET -3.155239131000001e-7 -0.11984121820000082 0.60178107
              }
            }
          }
        }
        JOINT rightShoulder
        {
          OFFSET -0.1807303465 1.5087829790000005 0
          CHANNELS 3 Yrotation Xrotation Zrotation
          JOINT rightUpperArm
          {
            OFFSET -0.5985063796536958 0 0
            CHANNELS 3 Yrotation Xrotation Zrotation
            JOINT rightLowerArm
            {
              OFFSET -2.2993322059002854 0 0
              CHANNELS 3 Yrotation Xrotation Zrotation
              JOINT rightHand
              {
                OFFSET -2.395045314457259 0 0
                CHANNELS 3 Yrotation Xrotation Zrotation
                JOINT rightIndexProximal
                {
                  OFFSET -0.5764487688300002 0.0441371204405987 0.17361932004999997
                  CHANNELS 3 Yrotation Xrotation Zrotation
                  JOINT rightIndexIntermediate
                  {
                    OFFSET -0.29573011380000047 -0.01934826376999843 -0.007698921482999974
                    CHANNELS 3 Yrotation Xrotation Zrotation
                    JOINT rightIndexDistal
                    {
                      OFFSET -0.19008373999999884 -0.012503266380000655 -0.0026365778999999897
                      CHANNELS 3 Yrotation Xrotation Zrotation
                      End Site
                      {
                        OFFSET -0.19008373999999884 -0.012503266380000655 -0.0026365778999999897
                      }
                    }
                  }
                }
                JOINT rightMiddleProximal
                {
                  OFFSET -0.5834852037300005 0.05211639405060153 0.02307162440000001
                  CHANNELS 3 Yrotation Xrotation Zrotation
                  JOINT rightMiddleIntermediate
                  {
                    OFFSET -0.33880114510000003 -0.019952774050000954 0.0002455003561999819
                    CHANNELS 3 Yrotation Xrotation Zrotation
                    JOINT rightMiddleDistal
                    {
                      OFFSET -0.20675694929999955 -0.012273788999999091 0.00030209124000002766
                      CHANNELS 3 Yrotation Xrotation Zrotation
                      End Site
                      {
                        OFFSET -0.20675694929999955 -0.012273788999999091 0.00030209124000002766
                      }
                    }
                  }
                }
                JOINT rightLittleProximal
                {
                  OFFSET -0.5346811737299992 -0.011214256288399227 -0.24363941305000003
                  CHANNELS 3 Yrotation Xrotation Zrotation
                  JOINT rightLittleIntermediate
                  {
                    OFFSET -0.21757715980000092 -0.011771559690000988 0.01201554387
                    CHANNELS 3 Yrotation Xrotation Zrotation
                    JOINT rightLittleDistal
                    {
                      OFFSET -0.1475201849000004 -0.00822055339600003 0.006082065407000015
                      CHANNELS 3 Yrotation Xrotation Zrotation
                      End Site
                      {
                        OFFSET -0.1475201849000004 -0.00822055339600003 0.006082065407000015
                      }
                    }
                  }
                }
                JOINT rightRingProximal
                {
                  OFFSET -0.5800810755299999 0.027657985680600072 -0.12066365025000003
                  CHANNELS 3 Yrotation Xrotation Zrotation
                  JOINT rightRingIntermediate
                  {
                    OFFSET -0.26166445029999974 -0.013623118409999302 0.011164098990000045
                    CHANNELS 3 Yrotation Xrotation Zrotation
                    JOINT rightRingDistal
                    {
                      OFFSET -0.17666387530000027 -0.009072900100000503 0.005668185599999959
                      CHANNELS 3 Yrotation Xrotation Zrotation
                      End Site
                      {
                        OFFSET -0.17666387530000027 -0.009072900100000503 0.005668185599999959
                      }
                    }
                  }
                }
                JOINT rightThumbProximal
                {
                  OFFSET -0.10997596379000074 -0.09577489355940072 0.16989765924999997
                  CHANNELS 3 Yrotation Xrotation Zrotation
                  JOINT rightThumbIntermediate
                  {
                    OFFSET -0.31036620999999986 -0.08229339117999834 0.15440884469999996
                    CHANNELS 3 Yrotation Xrotation Zrotation
                    JOINT rightThumbDistal
                    {
                      OFFSET -0.21631306399999906 -0.08825326400000111 0.018656797720000014
                      CHANNELS 3 Yrotation Xrotation Zrotation
                      End Site
                      {
                        OFFSET -0.21631306399999906 -0.08825326400000111 0.018656797720000014
                      }
                    }
                  }
                }
              }
            }
          }
        }
      }
    }
  }
}
MOTION
Frames: 6
Frame Time: 0.03333333333333333
-0.14592165720185823 -10.12643314978695 -5.755323079813846 0.3553306892569245 -88.99361211240762 179.650851117948 6.6348190267873175 -39.46129036768313 33.57753185054974 -5.6556587744295355 62.034685733579046 7.842660166170762 -19.70774033892527 54.670002655789325 3.5435862540377876 0 0 0 -6.6694124101682695 -39.479455166978475 -33.56305277055893 5.632851217635751 62.033775418388586 -7.896987820214085 19.7338513874152 54.65253186746804 -3.561010892398899 0 0 0 -0.21396846706040382 1.0481442647509145 -0.043805187918652976 -1.1861803281380925 5.554334855447667 -0.22639811823391662 0 0 0 21.821191518189533 3.748071719863747 -15.427078295213262 -78.36750428080938 0.3122385741029612 -1.966744884744692 -52.28749608983904 -18.633504167906857 -6.152862971303122 -22.04545325173918 -46.873785042248926 -15.666145445430574 0 0 0 0 0 0 0 0 0 0 0 0 0 0 0 0 0 0 0 0 0 0 0 0 0 0 0 0 0 0 0 0 0 0 0 0 0 0 0 0 0 0 0 0 0 0 45.52594238601336 0 0 -78.12422757917241 0 0 0 0 0 0 0 0 0 0 -21.8585613791674 3.4903274190885307 15.461316423559975 78.18778691138294 0.3563760089263235 1.954546755315068 51.91737318761999 -18.612695884486264 6.0684157898135105 21.709307485254488 -46.85830562195387 16.535916890807474 0 0 0 0 0 0 0 0 0 0 0 0 0 0 0 0 0 0 0 0 0 0 0 0 0 0 0 0 0 0 0 0 0 0 0 0 0 0 0 0 0 0 0 0 0
-0.14592165720185823 -10.12643314978695 -5.755323079813846 0.3553306892569245 -88.99361211240762 179.650851117948 6.6348190267873175 -39.46129036768313 33.57753185054974 -5.6556587744295355 62.034685733579046 7.842660166170762 -19.70774033892527 54.670002655789325 3.5435862540377876 0 0 0 -6.6694124101682695 -39.479455166978475 -33.56305277055893 5.632851217635751 62.033775418388586 -7.896987820214085 19.7338513874152 54.65253186746804 -3.561010892398899 0 0 0 -0.21396846706040382 1.0481442647509145 -0.043805187918652976 -1.1854731946122725 5.161879934993792 -0.21824422933459542 0 0 0 21.602965169685074 4.00203548251028 -15.47905722399861 -78.36750428080938 0.3122385741029612 -1.966744884744692 -51.84190486026265 -18.586435095700907 -6.130358570377885 -21.991207390049674 -46.85462498392234 -15.976299543565533 0 0 0 0 0 0 0 0 0 0 0 0 0 0 0 0 0 0 0 0 0 0 0 0 0 0 0 0 0 0 0 0 0 0 0 0 0 0 0 0 0 0 0 0 0 0 45.52594238601336 0 0 -76.67340666863684 0 0 0 0 0 0 0 0 0 0 -21.632705640686606 3.736163936670605 15.51441923960636 78.18778691138294 0.3563760089263235 1.954546755315068 51.48235939258822 -18.567601381954738 6.046205257670841 21.629082691644445 -46.8283784105068 16.859922545496953 0 0 0 0 0 0 0 0 0 0 0 0 0 0 0 0 0 0 0 0 0 0 0 0 0 0 0 0 0 0 0 0 0 0 0 0 0 0 0 0 0 0 0 0 0
-0.14592165720185823 -10.12643314978695 -5.755323079813846 0.3553306892569245 -88.99361211240762 179.650851117948 6.6348190267873175 -39.46129036768313 33.57753185054974 -5.6556587744295355 62.034685733579046 7.842660166170762 -19.70774033892527 54.670002655789325 3.5435862540377876 0 0 0 -6.6694124101682695 -39.479455166978475 -33.56305277055893 5.632851217635751 62.033775418388586 -7.896987820214085 19.7338513874152 54.65253186746804 -3.561010892398899 0 0 0 -0.21396846706040382 1.0481442647509145 -0.043805187918652976 -1.1848225214024477 4.7694252511751705 -0.21010005697509054 0 0 0 21.384437760665094 4.255799783018279 -15.532020694892879 -78.36750428080938 0.3122385741029612 -1.966744884744692 -51.39641947163755 -18.539533909782307 -6.107474682697788 -21.937133410317447 -46.83526708228136 -16.286316246372326 0 0 0 0 0 0 0 0 0 0 0 0 0 0 0 0 0 0 0 0 0 0 0 0 0 0 0 0 0 0 0 0 0 0 0 0 0 0 0 0 0 0 0 0 0 0 45.52594238601336 0 0 -75.22258633475523 0 0 0 0 0 0 0 0 0 0 -21.406557777214246 3.981789921887288 15.568510196259203 78.18778691138294 0.3563760089263235 1.954546755315068 51.04743955332437 -18.522666466477187 6.023640405265296 21.549150665768234 -46.798138599611036 17.183686556002133 0 0 0 0 0 0 0 0 0 0 0 0 0 0 0 0 0 0 0 0 0 0 0 0 0 0 0 0 0 0 0 0 0 0 0 0 0 0 0 0 0 0 0 0 0
-0.14592165720185823 -10.12643314978695 -5.755323079813846 0.3553306892569245 -88.99361211240762 179.650851117948 6.6348190267873175 -39.46129036768313 33.57753185054974 -5.6556587744295355 62.034685733579046 7.842660166170762 -19.70774033892527 54.670002655789325 3.5435862540377876 0 0 0 -6.6694124101682695 -39.479455166978475 -33.56305277055893 5.632851217635751 62.033775418388586 -7.896987820214085 19.73385338057807 54.65253186746804 -3.5610112590434344 0 0 0 -0.21396846706040382 1.0481442647509145 -0.043805187918652976 -1.183690305505166 3.9841456234744954 -0.1938306646044067 0 0 0 20.946289525399617 4.762890924588957 -15.64095932183822 -78.36750428080938 0.3122385741029612 -1.966744884744692 -50.505194734522064 -18.446185918073223 -6.060542782398589 -21.82947416730202 -46.79594363161599 -16.906072950787934 0 0 0 0 0 0 0 0 0 0 0 0 0 0 0 0 0 0 0 0 0 0 0 0 0 0 0 0 0 0 0 0 0 0 0 0 0 0 0 0 0 0 0 0 0 0 45.52594238601336 0 0 -72.3018709386472 0 0 0 0 0 0 0 0 0 0 -20.953193952323844 4.472561205937943 15.679703779713588 78.18778691138294 0.3563760089263235 1.954546755315068 50.17736525064525 -18.43323518601995 5.977423408388921 21.390156936436707 -46.73669834211089 17.830614235032527 0 0 0 0 0 0 0 0 0 0 0 0 0 0 0 0 0 0 0 0 0 0 0 0 0 0 0 0 0 0 0 0 0 0 0 0 0 0 0 0 0 0 0 0 0
-0.14592165720185823 -10.12643314978695 -5.755323079813846 0.3553306892569245 -88.99361211240762 179.650851117948 6.6348190267873175 -39.46129036768313 33.57753185054974 -5.6556587744295355 62.034685733579046 7.842660166170762 -19.70774033892527 54.670002655789325 3.5435862540377876 0 0 0 -6.6694124101682695 -39.479455166978475 -33.56305277055893 5.632851217635751 62.033775418388586 -7.896987820214085 19.7338513874152 54.65253186746804 -3.561010892398899 0 0 0 -0.21396846706040382 1.0481442647509145 -0.043805187918652976 -1.1832076766997899 3.591357794210582 -0.18570407374538364 0 0 0 20.72666978656449 5.016190115505049 -15.696930530912288 -78.36750428080938 0.3122385741029612 -1.966744884744692 -50.059501347138244 -18.39974600108734 -6.036501754320902 -21.775901683430856 -46.77597852198397 -17.21579796017591 0 0 0 0 0 0 0 0 0 0 0 0 0 0 0 0 0 0 0 0 0 0 0 0 0 0 0 0 0 0 0 0 0 0 0 0 0 0 0 0 0 0 0 0 0 0 45.52594238601336 0 0 -70.83377438218585 0 0 0 0 0 0 0 0 0 0 -20.72597325682878 4.717681369400962 15.73680127019688 78.18778691138294 0.3563760089263235 1.954546755315068 49.74225739614032 -18.388752933409116 5.95377818536269 21.31109625079885 -46.70551889271734 18.153764104212318 0 0 0 0 0 0 0 0 0 0 0 0 0 0 0 0 0 0 0 0 0 0 0 0 0 0 0 0 0 0 0 0 0 0 0 0 0 0 0 0 0 0 0 0 0
-0.14592165720185823 -10.12643314978695 -5.755323079813846 0.3553306892569245 -88.99361211240762 179.650851117948 6.6348190267873175 -39.46129036768313 33.57753185054974 -5.6556587744295355 62.034685733579046 7.842660166170762 -19.70774033892527 54.670002655789325 3.5435862540377876 0 0 0 -6.6694124101682695 -39.479455166978475 -33.56305277055893 5.632851217635751 62.033775418388586 -7.896987820214085 19.7338513874152 54.65253186746804 -3.561010892398899 0 0 0 -0.21396846706040382 1.0481442647509145 -0.043805187918652976 -1.182780977996144 3.198569803087238 -0.1775841101091046 0 0 0 20.50671480733396 5.269273399010249 -15.753897420474074 -78.36750428080938 0.3122385741029612 -1.966744884744692 -49.613903447440784 -18.353485914704184 -6.0120873205787655 -21.722503390020837 -46.75582142159137 -17.525380302978594 0 0 0 0 0 0 0 0 0 0 0 0 0 0 0 0 0 0 0 0 0 0 0 0 0 0 0 0 0 0 0 0 0 0 0 0 0 0 0 0 0 0 0 0 0 0 45.52594238601336 0 0 -69.36566672891624 0 0 0 0 0 0 0 0 0 0 -20.498426557843853 4.962573163120906 15.794896169162463 78.18778691138294 0.3563760089263235 1.954546755315068 49.30724454592831 -18.344442266418046 5.929783791770955 21.232337888640505 -46.67403392293098 18.476666577210956 0 0 0 0 0 0 0 0 0 0 0 0 0 0 0 0 0 0 0 0 0 0 0 0 0 0 0 0 0 0 0 0 0 0 0 0 0 0 0 0 0 0 0 0 0
